<svg xmlns="http://www.w3.org/2000/svg" viewBox="0 0 640 512" width="100%" height="100%">
  <path d="M96 128C96 74.98 138.1 32 192 32C213.9 32 234.2 40.38 249.6 54.63C270.3 21.25 307.7 0 352 0C412.1 0 464 51.88 464 112C464 119.1 463.1 126 461.4 132.4C481.9 142.8 496 164.8 496 192C496 221.9 474.6 246.5 447.4 253.7C472.8 271.9 489.6 304.8 489.6 342.4C489.6 405.7 437.7 455.6 376 455.6H64C28.65 455.6 0 426.1 0 389.6C0 345.6 29.07 308.4 69.25 298.8C55.17 280.2 48 257.2 48 234.4C48 186.1 85.97 147.1 132.1 140.3C119.4 136.1 109.1 129.2 102.1 119.3C98.73 114.5 96 108.4 96 101.6V128zM192 80C165.5 80 144 101.5 144 128V152C144 178.5 165.5 200 192 200C218.5 200 240 178.5 240 152V128C240 101.5 218.5 80 192 80z"/>
</svg>
